<svg xmlns="http://www.w3.org/2000/svg" viewBox="0 0 564.21 260"><defs><style>.cls-1{font-size:44px;letter-spacing:0.08em;}.cls-1,.cls-9{fill:#8080f7;font-family:YouSheShaYuFeiTeJianKangTi;}.cls-2{letter-spacing:0.1em;}.cls-3{letter-spacing:0.1em;}.cls-4{letter-spacing:0.09em;}.cls-5{letter-spacing:0.1em;}.cls-6{letter-spacing:0.08em;}.cls-7{letter-spacing:0.08em;}.cls-8{letter-spacing:0.1em;}.cls-9{font-size:50px;letter-spacing:0.2em;}</style></defs><g id="图层_2" data-name="图层 2"><g id="图层_1-2" data-name="图层 1"><path d="M302.31,24.45a7.28,7.28,0,0,0-4.84-12.71H190.62c-23.5,0-48.44.77-53.5,26.76-4.4,22.66,16.16,43.74,30.94,58.43a2.86,2.86,0,0,1-3.8,4.26L53.84,13A7.28,7.28,0,0,1,58.38,0H324.56a7.27,7.27,0,0,1,4.8,12.74L202.1,124.43a33.72,33.72,0,0,0-11.48,25.34v89.06a9,9,0,0,0,9.56,8.91c15.42-1,45-5.73,54.94-26.24,9.55-19.77-15.76-50.69-32.33-70.25a2,2,0,0,1,2.85-2.69l104.9,98.87a7.28,7.28,0,0,1-5,12.57H56.74a7.28,7.28,0,0,1-4.84-12.71Z"/><text class="cls-1" transform="translate(283.63 111.74)">Z<tspan class="cls-2" x="31.94" y="0">H</tspan><tspan class="cls-3" x="66.81" y="0">U</tspan><tspan class="cls-4"><tspan x="0" y="60">S</tspan><tspan class="cls-5" x="31.19" y="60">H</tspan><tspan class="cls-6" x="66.11" y="60">I</tspan><tspan class="cls-7" x="77.62" y="60">Y</tspan><tspan class="cls-8" x="113.64" y="60" xml:space="preserve">U          </tspan></tspan></text><text class="cls-9" transform="translate(0 112.74)">朱<tspan x="0" y="60">世煜</tspan></text></g></g></svg>